<svg aria-hidden="true" style="position: absolute; width: 0; height: 0; overflow: hidden;" version="1.1" xmlns="http://www.w3.org/2000/svg" xmlns:xlink="http://www.w3.org/1999/xlink">
<defs>
<symbol id="icon-heart-min" viewBox="0 0 32 32">
<path d="M5.775 16.063l10.225 10.604 10.225-10.604c1.099-1.148 1.775-2.708 1.775-4.426 0-0.007 0-0.013-0-0.019v0.001c0-3.471-2.713-6.285-6.061-6.285-1.685 0.005-3.204 0.71-4.283 1.838l-0.002 0.002-1.653 1.717-1.653-1.717c-1.082-1.13-2.601-1.835-4.284-1.84h-0.001c-3.347 0-6.061 2.813-6.061 6.285 0 1.667 0.639 3.267 1.775 4.444z"></path>
</symbol>
<symbol id="icon-arrow-left" viewBox="0 0 32 32">
<path stroke-linejoin="round" stroke-linecap="round" stroke-miterlimit="4" stroke-width="2" d="M5.333 16h21.333M5.333 16l8-8M5.333 16l8 8"></path>
</symbol>
<symbol id="icon-camera" viewBox="0 0 32 32">
<path fill="none"  stroke-linejoin="round" stroke-linecap="butt" stroke-miterlimit="4" stroke-width="2" d="M16 21.333c2.209 0 4-1.791 4-4s-1.791-4-4-4v0c-2.209 0-4 1.791-4 4s1.791 4 4 4v0z"></path>
<path fill="none" stroke-linejoin="round" stroke-linecap="butt" stroke-miterlimit="4" stroke-width="2" d="M4 12c0-1.473 1.194-2.667 2.667-2.667v0h3.333c0.736 0 1.333-0.597 1.333-1.333v0c0-0.736 0.597-1.333 1.333-1.333v0h6.667c0.736 0 1.333 0.597 1.333 1.333v0c0 0.736 0.597 1.333 1.333 1.333v0h3.333c1.473 0 2.667 1.194 2.667 2.667v0 10.667c0 1.473-1.194 2.667-2.667 2.667v0h-18.667c-1.473 0-2.667-1.194-2.667-2.667v0-10.667z"></path>
</symbol>
<symbol id="icon-check" viewBox="0 0 32 32">
<path fill="none" stroke-linejoin="round" stroke-linecap="round" stroke-miterlimit="4" stroke-width="2" d="M26.667 9.333l-14.667 14.667-6.667-6.667"></path>
</symbol>
<symbol id="icon-check-round" viewBox="0 0 32 32">
<path fill="none" stroke-linejoin="round" stroke-linecap="round" stroke-miterlimit="4" stroke-width="2" d="M22.667 12l-9.333 9.333-4-4M10.667 26.667h10.667c2.946 0 5.333-2.388 5.333-5.333v0-10.667c0-2.946-2.388-5.333-5.333-5.333v0h-10.667c-2.946 0-5.333 2.388-5.333 5.333v0 10.667c0 2.946 2.388 5.333 5.333 5.333v0z"></path>
</symbol>
<symbol id="icon-chevron-down" viewBox="0 0 32 32">
<path fill="none" stroke-linejoin="round" stroke-linecap="round" stroke-miterlimit="4" stroke-width="2" d="M5.333 12l10.667 10.667 10.667-10.667"></path>
</symbol>
<symbol id="icon-chevron-up" viewBox="0 0 32 32">
<path fill="none" stroke-linejoin="round" stroke-linecap="round" stroke-miterlimit="4" stroke-width="2" d="M26.667 20l-10.667-10.667-10.667 10.667"></path>
</symbol>
<symbol id="icon-clock" viewBox="0 0 32 32">
<path stroke-linejoin="round" stroke-linecap="round" stroke-miterlimit="4" stroke-width="1.92" d="M16.33 9.6v6.4l3.84 3.84M27.85 16c0 6.362-5.158 11.52-11.52 11.52s-11.52-5.158-11.52-11.52v0c0-6.362 5.158-11.52 11.52-11.52s11.52 5.158 11.52 11.52v0z"></path>
</symbol>
<symbol id="icon-cross" viewBox="0 0 32 32">
<path  stroke-linejoin="round" stroke-linecap="round" stroke-miterlimit="4" stroke-width="2" d="M25.333 6.667l-18.667 18.667M6.667 6.667l18.667 18.667"></path>
</symbol>
<symbol id="icon-cross-small" viewBox="0 0 32 32">
<path stroke-linejoin="round" stroke-linecap="round" stroke-miterlimit="4" stroke-width="2" d="M21.333 10.667l-10.667 10.667M10.667 10.667l10.667 10.667"></path>
</symbol>
<symbol id="icon-edit-2" viewBox="0 0 32 32">
<path stroke="none"  d="M6.667 20.941l-0.707-0.707c-0.181 0.181-0.293 0.431-0.293 0.707v0h1zM20.941 6.667l0.707-0.707c-0.181-0.181-0.431-0.292-0.707-0.292s-0.526 0.112-0.707 0.292v0l0.707 0.707zM25.333 11.059l0.707 0.707c0.181-0.181 0.292-0.431 0.292-0.707s-0.112-0.526-0.292-0.707v0l-0.707 0.707zM11.059 25.333v1c0.276-0 0.526-0.112 0.707-0.293v0l-0.707-0.707zM6.667 25.333h-1c0 0.552 0.448 1 1 1v-1zM15.451 24.333c-0.552 0-1 0.448-1 1s0.448 1 1 1v0-2zM24.784 26.333c0.552 0 1-0.448 1-1s-0.448-1-1-1v0 2zM7.373 21.648l14.275-14.275-1.413-1.413-14.275 14.275 1.413 1.413zM20.235 7.373l4.392 4.392 1.413-1.413-4.392-4.392-1.413 1.413zM24.627 10.352l-14.275 14.275 1.413 1.413 14.275-14.275-1.413-1.413zM11.059 24.333h-4.392v2h4.392v-2zM7.667 25.333v-4.392h-2v4.392h2zM16.94 10.667l4.393 4.395 1.413-1.413-4.392-4.393-1.413 1.412zM15.451 26.333h9.333v-2h-9.333v2z"></path>
</symbol>
<symbol id="icon-eye-closed" viewBox="0 0 32 32">
<path fill="none"  stroke-linejoin="round" stroke-linecap="round" stroke-miterlimit="4" stroke-width="2" d="M13.019 7.060c0.894-0.25 1.921-0.393 2.981-0.393 0 0 0 0 0.001 0h-0c8.485 0 13.333 9.333 13.333 9.333s-1.107 2.128-3.184 4.352M5.8 11.704c-2.048 2.204-3.133 4.296-3.133 4.296s4.848 9.333 13.333 9.333c1.079-0 2.123-0.149 3.113-0.427l-0.081 0.019M15.333 19.944c-1.449-0.252-2.615-1.253-3.098-2.583l-0.009-0.028M16.667 12.053c1.68 0.293 2.986 1.6 3.274 3.256l0.003 0.024M4 4l24 24"></path>
</symbol>
<symbol id="icon-eye-open" viewBox="0 0 32 32">
<path fill="none"  stroke-linejoin="round" stroke-linecap="round" stroke-miterlimit="4" stroke-width="2" d="M2.667 16s4.848-9.333 13.333-9.333c8.485 0 13.333 9.333 13.333 9.333s-4.848 9.333-13.333 9.333c-8.485 0-13.333-9.333-13.333-9.333z"></path>
<path fill="none"  stroke-linejoin="round" stroke-linecap="round" stroke-miterlimit="4" stroke-width="2" d="M16 20c2.209 0 4-1.791 4-4s-1.791-4-4-4v0c-2.209 0-4 1.791-4 4s1.791 4 4 4v0z"></path>
</symbol>
<symbol id="icon-female" viewBox="0 0 32 32">
<path stroke-linejoin="round" stroke-linecap="round" stroke-miterlimit="4" stroke-width="1.92" d="M16.33 17.28c3.535 0 6.4-2.865 6.4-6.4s-2.865-6.4-6.4-6.4v0c-3.535 0-6.4 2.865-6.4 6.4s2.865 6.4 6.4 6.4v0zM16.33 17.28v10.24M12.49 23.68h7.68"></path>
</symbol>
<symbol id="icon-filters-2" viewBox="0 0 32 32">
<path fill="none"  stroke-linejoin="miter" stroke-linecap="round" stroke-miterlimit="4" stroke-width="2" d="M18.667 6.667c0-1.473-1.194-2.667-2.667-2.667s-2.667 1.194-2.667 2.667v0M18.667 6.667c0 1.473-1.194 2.667-2.667 2.667s-2.667-1.194-2.667-2.667v0M18.667 6.667h8M13.333 6.667h-8M21.333 16c0 1.473 1.194 2.667 2.667 2.667s2.667-1.194 2.667-2.667v0c0-1.473-1.194-2.667-2.667-2.667s-2.667 1.194-2.667 2.667v0zM21.333 16h-16M10.667 25.333c0-1.473-1.194-2.667-2.667-2.667s-2.667 1.194-2.667 2.667v0c0 1.473 1.194 2.667 2.667 2.667s2.667-1.194 2.667-2.667v0zM10.667 25.333h16"></path>
</symbol>
<symbol id="icon-filters-3" viewBox="0 0 32 32">
<path fill="none" stroke-linejoin="round" stroke-linecap="round" stroke-miterlimit="4" stroke-width="1.92" d="M6.090 5.76l6.4 10.24v7.68l7.68 3.84v-11.52l6.4-10.24h-20.48z"></path>
</symbol>
<symbol id="icon-heart" viewBox="0 0 32 32">
<path stroke-linejoin="round" stroke-linecap="round" stroke-miterlimit="4" stroke-width="2" d="M5.775 16.063l10.227 10.604 10.225-10.604c1.098-1.148 1.773-2.707 1.773-4.424 0-0.007 0-0.014-0-0.021v0.001c0-3.471-2.713-6.285-6.061-6.285-1.685 0.005-3.204 0.71-4.283 1.838l-0.002 0.002-1.653 1.717-1.653-1.717c-1.082-1.13-2.601-1.835-4.284-1.84h-0.001c-3.347 0-6.061 2.813-6.061 6.285 0 1.667 0.639 3.267 1.775 4.444z"></path>
</symbol>
<symbol id="icon-location-1" viewBox="0 0 32 32">
<path stroke-linejoin="round" stroke-linecap="round" stroke-miterlimit="4" stroke-width="1.92" d="M26.57 14.72c0 5.655-4.585 10.24-10.24 12.8-5.655-2.56-10.24-7.145-10.24-12.8s4.585-10.24 10.24-10.24 10.24 4.585 10.24 10.24v0z"></path>
<path stroke-linejoin="round" stroke-linecap="round" stroke-miterlimit="4" stroke-width="1.92" d="M20.17 14.72c0 2.121-1.719 3.84-3.84 3.84s-3.84-1.719-3.84-3.84v0c0-2.121 1.719-3.84 3.84-3.84s3.84 1.719 3.84 3.84v0z"></path>
</symbol>
<symbol id="icon-logout" viewBox="0 0 32 32">
<path fill="none" stroke-linejoin="round" stroke-linecap="round" stroke-miterlimit="4" stroke-width="2" d="M18.667 5.333h5.333c1.473 0 2.667 1.194 2.667 2.667v0 16c0 1.473-1.194 2.667-2.667 2.667v0h-5.333M4 16h16M4 16l5.333-5.333M4 16l5.333 5.333"></path>
</symbol>
<symbol id="icon-male" viewBox="0 0 32 32">
<path stroke-linejoin="round" stroke-linecap="round" stroke-miterlimit="4" stroke-width="1.92" d="M16.33 14.72c-3.535 0-6.4 2.865-6.4 6.4s2.865 6.4 6.4 6.4v0c3.535 0 6.4-2.865 6.4-6.4s-2.865-6.4-6.4-6.4v0zM16.33 14.72v-10.24M16.33 4.48l5.12 5.12M16.33 4.48l-5.12 5.12"></path>
</symbol>
<symbol id="icon-menu-hamburger" viewBox="0 0 32 32">
<path stroke-linejoin="round" stroke-linecap="round" stroke-miterlimit="4" stroke-width="2" d="M5.333 9.333h21.333M5.333 16h21.333M5.333 22.667h21.333"></path>
</symbol>
<symbol id="icon-pawprint-1" viewBox="0 0 32 32">
<path stroke="none" d="M20.481 19.149c-0.364-2.684-2.055-4.904-4.379-6.004l-0.047-0.020c-0.965-0.463-2.098-0.734-3.295-0.734-1.547 0-2.988 0.453-4.198 1.233l0.031-0.018-5.432 3.437c-0.89 0.566-1.573 1.387-1.954 2.36l-0.012 0.033c-0.21 0.526-0.332 1.135-0.332 1.773 0 0.47 0.066 0.925 0.19 1.355l-0.008-0.035c0.296 1.051 0.903 1.933 1.714 2.565l0.011 0.008c0.841 0.655 1.851 1.013 2.919 1.037l0.069 0.001c2.787 0.087 5.265 1.337 6.978 3.279l0.009 0.011c0.682 0.777 1.598 1.335 2.637 1.563l0.033 0.006c0.313 0.071 0.673 0.112 1.042 0.112 0.739 0 1.44-0.164 2.068-0.457l-0.030 0.013c0.974-0.448 1.756-1.174 2.261-2.077l0.013-0.025c0.516-0.933 0.715-1.987 0.573-3.044l-0.859-6.371zM17.717 28.961c-1.235 0.563-2.667 0.255-3.563-0.765-1.042-1.182-2.306-2.142-3.73-2.818l-0.070-0.030c-1.354-0.647-2.937-1.041-4.609-1.080l-0.014-0-0.045-0.001c-1.353-0.046-2.478-0.969-2.828-2.216l-0.005-0.021c-0.073-0.248-0.114-0.532-0.114-0.826 0-1.079 0.562-2.027 1.41-2.567l0.012-0.007 5.435-3.44c0.895-0.578 1.989-0.922 3.164-0.922 0.908 0 1.769 0.206 2.537 0.573l-0.036-0.015c1.801 0.85 3.086 2.536 3.359 4.543l0.003 0.031 0.857 6.371c0.018 0.126 0.029 0.271 0.029 0.418 0 1.227-0.727 2.284-1.774 2.765l-0.019 0.008z"></path>
<path  stroke="none" d="M6.295 12.527c1.105 0.077 2.167-0.345 2.993-1.189 0.787-0.803 1.264-1.901 1.347-3.091 0.080-1.189-0.243-2.343-0.909-3.247-0.703-0.948-1.696-1.513-2.799-1.589-2.216-0.153-4.16 1.767-4.336 4.281-0.137 2.001 0.891 3.785 2.433 4.504 0.395 0.184 0.823 0.299 1.272 0.329zM4.463 7.82c0.103-1.48 1.151-2.62 2.336-2.537 0.213 0.013 0.421 0.069 0.617 0.16 0.304 0.141 0.577 0.369 0.801 0.673 0.405 0.547 0.6 1.256 0.547 2.001-0.051 0.747-0.34 1.423-0.813 1.908-0.436 0.443-0.976 0.667-1.52 0.629h-0.003c-1.184-0.080-2.064-1.353-1.963-2.835z"></path>
<path  stroke="none"  d="M14.188 11.529c2.351 1.095 5.277-0.191 6.525-2.867 1.248-2.677 0.352-5.747-1.997-6.841-2.348-1.096-5.275 0.191-6.523 2.867-1.248 2.677-0.352 5.747 1.996 6.84zM17.924 3.521c1.412 0.659 1.9 2.609 1.089 4.349-0.813 1.739-2.621 2.617-4.032 1.96-1.412-0.659-1.9-2.609-1.089-4.347 0.809-1.74 2.617-2.62 4.029-1.961z"></path>
<path stroke="none" d="M20.992 16.152c0.307 0.288 0.647 0.517 1.013 0.689 1.713 0.8 3.965 0.332 5.496-1.288 0.88-0.932 1.4-2.109 1.463-3.315 0.067-1.263-0.371-2.405-1.231-3.217-0.859-0.811-2.024-1.184-3.28-1.047-1.201 0.131-2.347 0.715-3.228 1.648-1.86 1.965-1.964 4.896-0.235 6.531zM22.588 10.909c0.577-0.609 1.311-0.989 2.069-1.072 0.7-0.076 1.336 0.119 1.789 0.547 0.453 0.427 0.683 1.052 0.645 1.756-0.040 0.76-0.377 1.516-0.953 2.124-1.147 1.213-2.879 1.449-3.857 0.525-0.977-0.925-0.84-2.667 0.308-3.88z"></path>
<path stroke="none" d="M30.227 19.769c-1.063-1.953-3.727-2.564-5.941-1.363-2.213 1.203-3.151 3.769-2.093 5.72 0.387 0.713 0.987 1.247 1.7 1.58 1.243 0.58 2.832 0.548 4.24-0.216 2.213-1.203 3.152-3.769 2.093-5.721zM27.24 23.843c-1.307 0.708-2.832 0.435-3.397-0.609-0.567-1.044 0.035-2.469 1.339-3.179 0.867-0.469 1.829-0.507 2.545-0.173 0.361 0.169 0.661 0.433 0.852 0.784 0.565 1.044-0.036 2.469-1.34 3.179z"></path>
</symbol>
<symbol id="icon-plus" viewBox="0 0 32 32">
<path  stroke-linejoin="miter" stroke-linecap="round" stroke-miterlimit="4" stroke-width="2.6667" d="M16 26.667v-10.667M16 16v-10.667M16 16h10.667M16 16h-10.667"></path>
</symbol>
<symbol id="icon-plus-small" viewBox="0 0 32 32">
<path stroke-linejoin="round" stroke-linecap="round" stroke-miterlimit="4" stroke-width="2" d="M16 9.333v13.333M9.333 16h13.333"></path>
</symbol>
<symbol id="icon-round" viewBox="0 0 32 32">
<path fill="none"  stroke-linejoin="round" stroke-linecap="butt" stroke-miterlimit="4" stroke-width="2" d="M5.333 10.667c0-2.946 2.388-5.333 5.333-5.333v0h10.667c2.946 0 5.333 2.388 5.333 5.333v0 10.667c0 2.946-2.388 5.333-5.333 5.333v0h-10.667c-2.946 0-5.333-2.388-5.333-5.333v0-10.667z"></path>
</symbol>
<symbol id="icon-search" viewBox="0 0 32 32">
<path stroke="none" d="M25.96 27.373c0.183 0.196 0.443 0.318 0.732 0.318 0.552 0 1-0.448 1-1 0-0.289-0.122-0.549-0.318-0.731l-0.001-0.001-1.413 1.413zM23 14c0 4.971-4.029 9-9 9v0 2c6.075 0 11-4.925 11-11v0h-2zM14 23c-4.971 0-9-4.029-9-9v0h-2c0 6.075 4.925 11 11 11v0-2zM5 14c0-4.971 4.029-9 9-9v0-2c-6.075 0-11 4.925-11 11v0h2zM14 5c4.971 0 9 4.029 9 9v0h2c0-6.075-4.925-11-11-11v0 2zM27.373 25.96l-5.583-5.584-1.413 1.413 5.583 5.584 1.413-1.413z"></path>
</symbol>
<symbol id="icon-trash-2" viewBox="0 0 32 32">
<path stroke-linejoin="round" stroke-linecap="round" stroke-miterlimit="4" stroke-width="2" d="M24 8v16c0 1.473-1.194 2.667-2.667 2.667v0h-10.667c-1.473 0-2.667-1.194-2.667-2.667v0-16M20 8v-1.333c0-1.473-1.194-2.667-2.667-2.667v0h-2.667c-1.473 0-2.667 1.194-2.667 2.667v0 1.333M5.333 8h21.333M13.333 13.333v8M18.667 13.333v8"></path>
</symbol>
<symbol id="icon-user-1" viewBox="0 0 32 32">
<path fill="none" stroke-linejoin="round" stroke-linecap="round" stroke-miterlimit="4" stroke-width="1.7143" d="M25.143 27.429v-2.286c0-2.525-2.047-4.571-4.571-4.571v0h-9.143c-2.525 0-4.571 2.047-4.571 4.571v0 2.286M20.571 11.429c0 2.525-2.047 4.571-4.571 4.571s-4.571-2.047-4.571-4.571v0c0-2.525 2.047-4.571 4.571-4.571s4.571 2.047 4.571 4.571v0z"></path>
<path fill="none" stroke-linejoin="miter" stroke-linecap="butt" stroke-miterlimit="4" stroke-width="1.7143" d="M16 0.857c8.363 0 15.143 6.78 15.143 15.143s-6.78 15.143-15.143 15.143c-8.363 0-15.143-6.78-15.143-15.143s6.78-15.143 15.143-15.143z"></path>
</symbol>
</defs>
</svg>
